<svg width="160" height="160" viewBox="0 0 160 160" fill="none" xmlns="http://www.w3.org/2000/svg">
<path d="M109.652 40.5092C95.0546 29.3652 61.3696 55.4412 61.3696 55.4412C63.5696 41.0792 48.2476 42.3192 48.2476 42.3192C85.4176 15.9072 104.055 35.2802 109.652 40.5092Z" stroke="#3C3F40" stroke-width="2" stroke-linecap="round" stroke-linejoin="round"/>
<path d="M109.652 40.5092C109.652 40.5092 82.7376 67.4242 78.0436 72.1162C78.0436 72.1162 77.6256 56.4472 61.4036 55.4412H61.3696C61.3696 55.4412 95.0546 29.3652 109.652 40.5092Z" stroke="#3C3F40" stroke-width="2" stroke-linecap="round" stroke-linejoin="round"/>
<path d="M107.842 101.913C107.842 101.913 109.082 86.5953 94.7026 88.7743C94.7026 88.7743 120.796 55.1063 109.652 40.5093C114.881 46.1063 134.254 64.7423 107.842 101.913Z" stroke="#3C3F40" stroke-width="2" stroke-linecap="round" stroke-linejoin="round"/>
<path d="M94.7029 88.7743V88.7413C93.7139 72.5353 78.0449 72.1163 78.0449 72.1163L109.652 40.5093C120.792 55.1063 94.7029 88.7743 94.7029 88.7743Z" stroke="#3C3F40" stroke-width="2" stroke-linecap="round" stroke-linejoin="round"/>
<path d="M114.079 36.0792L54.9497 95.2062" stroke="#3C3F40" stroke-width="2" stroke-linecap="round" stroke-linejoin="round"/>
<path d="M75.7856 35.8342C70.6411 37.0329 65.7567 39.1549 61.3696 42.0972" stroke="#3C3F40" stroke-width="2" stroke-linecap="round" stroke-linejoin="round"/>
<path d="M51.1766 103.922C54.0142 103.922 56.3146 101.622 56.3146 98.7842C56.3146 95.9466 54.0142 93.6462 51.1766 93.6462C48.3389 93.6462 46.0386 95.9466 46.0386 98.7842C46.0386 101.622 48.3389 103.922 51.1766 103.922Z" stroke="#3C3F40" stroke-width="2" stroke-linecap="round" stroke-linejoin="round"/>
<path d="M51.1768 103.922V131.247" stroke="#3C3F40" stroke-width="2" stroke-linecap="round" stroke-linejoin="round"/>
<path d="M50.2038 104.327L38.5918 131.247" stroke="#3C3F40" stroke-width="2" stroke-linecap="round" stroke-linejoin="round"/>
<path d="M52.1489 104.327L63.7619 131.247" stroke="#3C3F40" stroke-width="2" stroke-linecap="round" stroke-linejoin="round"/>
<path d="M51.1768 93.6462V83.4862L57.0358 77.6262" stroke="#3C3F40" stroke-width="2" stroke-linecap="round" stroke-linejoin="round"/>
<path d="M48.1357 131.247H54.2167" stroke="#3C3F40" stroke-width="2" stroke-linecap="round" stroke-linejoin="round"/>
</svg>
