<svg width="160" height="160" viewBox="0 0 160 160" fill="none" xmlns="http://www.w3.org/2000/svg">
<g clip-path="url(#clip0_5_956)">
<path d="M97.9282 92.095C97.9284 95.7321 96.85 99.2876 94.8295 102.312C92.8089 105.336 89.937 107.693 86.5768 109.085C83.2166 110.477 79.5191 110.841 75.9519 110.132C72.3847 109.422 69.108 107.671 66.5362 105.099C63.9644 102.527 62.213 99.2505 61.5034 95.6833C60.7939 92.1161 61.1582 88.4186 62.5501 85.0584C63.9421 81.6982 66.2992 78.8263 69.3234 76.8057C72.3476 74.7852 75.9031 73.7068 79.5402 73.707C84.417 73.707 89.094 75.6443 92.5424 79.0928C95.9908 82.5412 97.9282 87.2182 97.9282 92.095Z" stroke="#BF9D8A" stroke-width="2" stroke-linecap="round" stroke-linejoin="round"/>
<path d="M68.5042 92.095C68.5042 89.168 69.6669 86.361 71.7365 84.2913C73.8062 82.2217 76.6132 81.059 79.5401 81.059" stroke="#BF9D8A" stroke-width="2" stroke-linecap="round" stroke-linejoin="round"/>
<path d="M73.438 63.353H85.642" stroke="#BF9D8A" stroke-width="2" stroke-linecap="round" stroke-linejoin="round"/>
<path d="M103.871 67.99H93.7261L90.3671 59.136C89.9959 58.1573 89.3357 57.3146 88.4743 56.72C87.6128 56.1254 86.5908 55.807 85.5441 55.807H73.5371C72.4902 55.8071 71.4681 56.1255 70.6065 56.7201C69.7449 57.3147 69.0846 58.1573 68.7131 59.136L65.3541 67.99H61.5671V64.98H55.7981V67.99H55.2091C54.296 67.99 53.392 68.1699 52.5484 68.5193C51.7049 68.8687 50.9385 69.3809 50.2929 70.0266C49.6474 70.6722 49.1353 71.4387 48.786 72.2823C48.4367 73.1259 48.2569 74.03 48.2571 74.943V109.248C48.2571 111.092 48.9895 112.86 50.2933 114.164C51.597 115.468 53.3653 116.2 55.2091 116.2H103.871C105.715 116.2 107.483 115.468 108.787 114.164C110.091 112.86 110.824 111.092 110.824 109.248V74.943C110.824 73.099 110.092 71.3304 108.788 70.0265C107.484 68.7226 105.715 67.99 103.871 67.99V67.99Z" stroke="#BF9D8A" stroke-width="2" stroke-linecap="round" stroke-linejoin="round"/>
<path d="M46.219 28.97C54.559 28.97 54.559 34.313 62.9 34.313C71.241 34.313 71.248 28.97 79.59 28.97C87.932 28.97 87.944 34.313 96.297 34.313C104.65 34.313 104.656 28.97 113.009 28.97" stroke="#BF9D8A" stroke-width="2" stroke-linecap="round" stroke-linejoin="round"/>
<path d="M46.219 41.213C54.559 41.213 54.559 46.556 62.9 46.556C71.241 46.556 71.248 41.213 79.595 41.213C87.942 41.213 87.949 46.556 96.302 46.556C104.655 46.556 104.656 41.213 113.009 41.213" stroke="#BF9D8A" stroke-width="2" stroke-linecap="round" stroke-linejoin="round"/>
<path d="M129.318 123.118H30.7971V131.03H129.318V123.118Z" stroke="#BF9D8A" stroke-width="2" stroke-linecap="round" stroke-linejoin="round"/>
<path d="M39.451 122.87H30.797L29.49 79.51C29.4676 78.7563 29.5966 78.0058 29.8695 77.3029C30.1424 76.6001 30.5537 75.9591 31.0788 75.4181C31.604 74.877 32.2324 74.4469 32.9268 74.1532C33.6212 73.8595 34.3676 73.7081 35.1215 73.7081C35.8755 73.7081 36.6219 73.8595 37.3163 74.1532C38.0107 74.4469 38.6391 74.877 39.1643 75.4181C39.6894 75.9591 40.1007 76.6001 40.3736 77.3029C40.6465 78.0058 40.7755 78.7563 40.753 79.51L39.451 122.87Z" stroke="#BF9D8A" stroke-width="2" stroke-linecap="round" stroke-linejoin="round"/>
<path d="M129.203 122.87H120.549L119.249 79.507C119.227 78.7534 119.356 78.0029 119.629 77.3C119.901 76.5971 120.313 75.9562 120.838 75.4151C121.363 74.8741 121.991 74.444 122.686 74.1503C123.38 73.8565 124.127 73.7052 124.881 73.7052C125.635 73.7052 126.381 73.8565 127.075 74.1503C127.77 74.444 128.398 74.8741 128.923 75.4151C129.448 75.9562 129.86 76.5971 130.133 77.3C130.405 78.0029 130.535 78.7534 130.512 79.507L129.203 122.87Z" stroke="#BF9D8A" stroke-width="2" stroke-linecap="round" stroke-linejoin="round"/>
</g>
<defs>
<clipPath id="clip0_5_956">
<rect width="103.02" height="104.06" fill="white" transform="translate(28.49 27.97)"/>
</clipPath>
</defs>
</svg>
