<svg width="160" height="160" viewBox="0 0 160 160" fill="none" xmlns="http://www.w3.org/2000/svg">
<g clip-path="url(#clip0_5_968)">
<path d="M120.226 51.4076H31.2534V59.9276H120.226V51.4076Z" stroke="#3C3F40" stroke-width="2" stroke-linecap="round" stroke-linejoin="round"/>
<path d="M128.745 123.343H39.7725V131.862H128.745V123.343Z" stroke="#3C3F40" stroke-width="2" stroke-linecap="round" stroke-linejoin="round"/>
<path d="M39.7724 59.9275H31.2534V131.861H39.7724V59.9275Z" stroke="#3C3F40" stroke-width="2" stroke-linecap="round" stroke-linejoin="round"/>
<path d="M128.746 51.4076H120.226V123.343H128.746V51.4076Z" stroke="#3C3F40" stroke-width="2" stroke-linecap="round" stroke-linejoin="round"/>
<path d="M51.5154 51.4086C51.5154 51.4086 69.7474 37.2245 76.9994 31.4875" stroke="#3C3F40" stroke-width="2" stroke-linecap="round" stroke-linejoin="round"/>
<path d="M82.8535 31.4875C90.1055 37.2255 108.309 51.4086 108.309 51.4086" stroke="#3C3F40" stroke-width="2" stroke-linecap="round" stroke-linejoin="round"/>
<path d="M75.0205 72.6505C75.0203 73.9835 74.6249 75.2865 73.8842 76.3947C73.1435 77.5029 72.0909 78.3667 70.8594 78.8767C69.6278 79.3867 68.2727 79.5201 66.9654 79.26C65.658 78.9999 64.4572 78.358 63.5146 77.4154C62.5721 76.4729 61.9302 75.272 61.6701 73.9647C61.41 72.6574 61.5434 71.3023 62.0534 70.0707C62.5634 68.8392 63.4271 67.7865 64.5354 67.0459C65.6436 66.3052 66.9466 65.9097 68.2795 65.9095C70.0674 65.9095 71.782 66.6198 73.0461 67.8839C74.3103 69.1481 75.0205 70.8627 75.0205 72.6505V72.6505Z" stroke="#3C3F40" stroke-width="2" stroke-linecap="round" stroke-linejoin="round"/>
<path d="M70.6795 108.464L61.8535 123.23H40.7395L60.5735 94.3385L70.6795 108.464Z" stroke="#3C3F40" stroke-width="2" stroke-linecap="round" stroke-linejoin="round"/>
<path d="M119.696 123.231H103.008L97.6533 114.115L105.225 103.077L119.696 123.231Z" stroke="#3C3F40" stroke-width="2" stroke-linecap="round" stroke-linejoin="round"/>
<path d="M103.009 123.231H61.8535L70.6775 108.465L82.5625 88.5725L97.6535 114.115L103.009 123.231Z" stroke="#3C3F40" stroke-width="2" stroke-linecap="round" stroke-linejoin="round"/>
<path d="M82.8834 31.0795C82.8882 31.2162 82.8785 31.3529 82.8544 31.4875C82.7597 32.1967 82.4107 32.8473 81.8723 33.3186C81.334 33.7898 80.6429 34.0495 79.9274 34.0495C79.2119 34.0495 78.5208 33.7898 77.9825 33.3186C77.4441 32.8473 77.0951 32.1967 77.0004 31.4875C76.9763 31.3529 76.9666 31.2162 76.9714 31.0795C76.9714 30.2956 77.2828 29.5437 77.8372 28.9893C78.3916 28.435 79.1434 28.1235 79.9274 28.1235C80.7114 28.1235 81.4633 28.435 82.0176 28.9893C82.572 29.5437 82.8834 30.2956 82.8834 31.0795V31.0795Z" stroke="#3C3F40" stroke-width="2" stroke-linecap="round" stroke-linejoin="round"/>
<path d="M54.4004 103.325L57.4554 105.795L60.5054 104.704L64.3874 106.558L66.4874 103.297" stroke="#3C3F40" stroke-width="2" stroke-linecap="round" stroke-linejoin="round"/>
<path d="M77.1533 97.8785L79.8163 100.031L82.4743 99.0805L85.8573 100.696L87.6923 97.8545" stroke="#3C3F40" stroke-width="2" stroke-linecap="round" stroke-linejoin="round"/>
<path d="M101.825 108.777L103.695 110.288L105.561 109.621L107.936 110.755L109.224 108.76" stroke="#3C3F40" stroke-width="2" stroke-linecap="round" stroke-linejoin="round"/>
</g>
<defs>
<clipPath id="clip0_5_968">
<rect width="99.493" height="105.723" fill="white" transform="translate(30.2534 27.1385)"/>
</clipPath>
</defs>
</svg>
