<svg width="160" height="160" viewBox="0 0 160 160" fill="none" xmlns="http://www.w3.org/2000/svg">
<g clip-path="url(#clip0_5_1025)">
<path d="M76.9645 61.928V81.238H67.2365C68.8062 78.2668 69.6263 74.9573 69.6255 71.597C69.6307 68.2237 68.7999 64.9017 67.2075 61.928H76.9645Z" stroke="#3C3F40" stroke-width="2" stroke-linecap="round" stroke-linejoin="round"/>
<path d="M79.8695 53.8149H128.586C129.358 53.8149 130.099 54.1218 130.645 54.6681C131.192 55.2144 131.499 55.9554 131.499 56.7279V86.4549C131.499 87.2273 131.192 87.9679 130.646 88.514C130.1 89.0601 129.359 89.3669 128.587 89.3669H79.8695C79.0972 89.3669 78.3565 89.0601 77.8104 88.514C77.2643 87.9679 76.9575 87.2273 76.9575 86.4549V56.7269C76.9575 55.9546 77.2643 55.214 77.8104 54.6678C78.3565 54.1217 79.0972 53.8149 79.8695 53.8149V53.8149Z" stroke="#3C3F40" stroke-width="2" stroke-linecap="round" stroke-linejoin="round"/>
<path d="M90.0346 81.8709H84.4536V77.7789" stroke="#3C3F40" stroke-width="2" stroke-linecap="round" stroke-linejoin="round"/>
<path d="M84.4536 66.1199V61.3099H89.4766" stroke="#3C3F40" stroke-width="2" stroke-linecap="round" stroke-linejoin="round"/>
<path d="M118.741 81.8709H124.322V77.7789" stroke="#3C3F40" stroke-width="2" stroke-linecap="round" stroke-linejoin="round"/>
<path d="M124.323 66.1199V61.3099H119.302" stroke="#3C3F40" stroke-width="2" stroke-linecap="round" stroke-linejoin="round"/>
<path d="M63.6015 54.0639V57.0379C61.6921 55.1234 59.4234 53.605 56.9255 52.5697C54.4277 51.5344 51.7499 51.0027 49.0461 51.0051C46.3422 51.0075 43.6654 51.544 41.1694 52.5837C38.6734 53.6235 36.4074 55.146 34.5015 57.0639V54.0639C34.5073 50.5049 35.9237 47.0934 38.4403 44.5767C40.9569 42.0601 44.3685 40.6438 47.9275 40.6379H50.2015C53.7579 40.6443 57.1665 42.0617 59.6789 44.5789C62.1912 47.0962 63.602 50.5075 63.6015 54.0639Z" stroke="#3C3F40" stroke-width="2" stroke-linecap="round" stroke-linejoin="round"/>
<path d="M49.0635 92.1599C51.7651 92.1667 54.4412 91.6373 56.9367 90.6024C59.4322 89.5675 61.6976 88.0476 63.6015 86.1309V105.938C63.6015 109.494 62.1905 112.905 59.6782 115.422C57.1659 117.938 53.7576 119.356 50.2015 119.362H47.9275C44.3688 119.356 40.9575 117.94 38.441 115.424C35.9244 112.908 34.5078 109.497 34.5015 105.938V86.1019C36.4065 88.0259 38.6748 89.5521 41.1746 90.5921C43.6744 91.6321 46.356 92.165 49.0635 92.1599V92.1599Z" stroke="#3C3F40" stroke-width="2" stroke-linecap="round" stroke-linejoin="round"/>
<path d="M69.6256 71.598C69.6265 74.958 68.8063 78.2672 67.2366 81.238C66.2805 83.0455 65.0529 84.6956 63.5966 86.131C60.7191 89.0095 57.0527 90.97 53.0609 91.7645C49.0692 92.5591 44.9314 92.1521 41.171 90.5949C37.4107 89.0377 34.1965 86.4003 31.9352 83.0162C29.6738 79.6322 28.4668 75.6535 28.4668 71.5835C28.4668 67.5134 29.6738 63.5348 31.9352 60.1507C34.1965 56.7667 37.4107 54.1293 41.171 52.5721C44.9314 51.0149 49.0692 50.6078 53.0609 51.4024C57.0527 52.197 60.7191 54.1575 63.5966 57.036C65.0353 58.4796 66.2522 60.1286 67.2076 61.929C68.8 64.9027 69.6307 68.2247 69.6256 71.598V71.598Z" stroke="#3C3F40" stroke-width="2" stroke-linecap="round" stroke-linejoin="round"/>
<path d="M49.0636 86.139C57.0983 86.139 63.6116 79.6256 63.6116 71.591C63.6116 63.5563 57.0983 57.043 49.0636 57.043C41.029 57.043 34.5156 63.5563 34.5156 71.591C34.5156 79.6256 41.029 86.139 49.0636 86.139Z" stroke="#3C3F40" stroke-width="2" stroke-linecap="round" stroke-linejoin="round"/>
<path d="M43.4005 68.404C44.4321 68.404 45.2685 67.5676 45.2685 66.536C45.2685 65.5043 44.4321 64.668 43.4005 64.668C42.3688 64.668 41.5325 65.5043 41.5325 66.536C41.5325 67.5676 42.3688 68.404 43.4005 68.404Z" stroke="#3C3F40" stroke-width="2" stroke-linecap="round" stroke-linejoin="round"/>
</g>
<defs>
<clipPath id="clip0_5_1025">
<rect width="104.997" height="80.724" fill="white" transform="translate(27.5015 39.6379)"/>
</clipPath>
</defs>
</svg>
