<svg width="160" height="160" viewBox="0 0 160 160" fill="none" xmlns="http://www.w3.org/2000/svg">
<path d="M120.069 86.2303C120.072 90.3921 118.838 94.4611 116.524 97.923C114.21 101.385 110.919 104.084 107.068 105.679C103.217 107.275 98.9782 107.694 94.8881 106.885C90.7981 106.076 87.0403 104.074 84.0899 101.134C81.1395 98.1929 79.129 94.4449 78.3127 90.3637C77.4965 86.2825 77.911 82.0514 79.5039 78.2054C81.0969 74.3593 83.7967 71.0711 87.262 68.7565C90.7273 66.442 94.8023 65.205 98.972 65.202C101.741 65.1982 104.484 65.7394 107.043 66.7944C109.603 67.8495 111.929 69.3978 113.888 71.3509C115.848 73.3039 117.402 75.6233 118.463 78.1765C119.523 80.7296 120.069 83.4664 120.069 86.2303V86.2303Z" stroke="#3C3F40" stroke-width="2" stroke-linecap="round" stroke-linejoin="round"/>
<path d="M126.18 52.1899H52.1797V120.266H126.18C127.722 120.261 129.2 119.648 130.29 118.559C131.38 117.471 131.995 115.996 131.999 114.457V57.999C131.995 56.4599 131.38 54.9851 130.29 53.8967C129.2 52.8083 127.722 52.1947 126.18 52.1899ZM127.46 86.2305C127.458 92.564 125.337 98.7155 121.434 103.709C117.531 108.703 112.069 112.253 105.915 113.796C99.7609 115.339 93.2666 114.787 87.4625 112.227C81.6583 109.667 76.8767 105.246 73.8761 99.6658C70.8755 94.0852 69.8278 87.6643 70.8991 81.4218C71.9704 75.1792 75.0993 69.4724 79.7897 65.2066C84.48 60.9408 90.4631 58.3603 96.7899 57.8745C103.117 57.3886 109.425 59.0252 114.714 62.5246C118.635 65.1176 121.851 68.6398 124.076 72.7766C126.3 76.9133 127.463 81.5357 127.46 86.2305V86.2305Z" stroke="#3C3F40" stroke-width="2" stroke-linecap="round" stroke-linejoin="round"/>
<path d="M83.2284 109.93H52.1797V62.5245H56.8647C56.8844 63.9945 57.4832 65.3975 58.5316 66.4301C59.58 67.4626 60.9936 68.0415 62.4665 68.0415C63.9393 68.0415 65.3529 67.4626 66.4013 66.4301C67.4497 65.3975 68.0486 63.9945 68.0682 62.5245H83.2284C79.3172 65.1242 76.11 68.6479 73.8916 72.7826C71.6733 76.9172 70.5126 81.5348 70.5126 86.225C70.5126 90.9152 71.6733 95.5327 73.8916 99.6674C76.11 103.802 79.3172 107.326 83.2284 109.925V109.93Z" stroke="#3C3F40" stroke-width="2" stroke-linecap="round" stroke-linejoin="round"/>
<path d="M120.069 86.2303C120.072 90.3921 118.838 94.4611 116.524 97.923C114.21 101.385 110.919 104.084 107.068 105.679C103.217 107.275 98.9782 107.694 94.8881 106.885C90.7981 106.076 87.0403 104.074 84.0899 101.134C81.1395 98.1929 79.129 94.4449 78.3127 90.3637C77.4965 86.2825 77.911 82.0514 79.5039 78.2054C81.0969 74.3593 83.7967 71.0711 87.262 68.7565C90.7273 66.442 94.8023 65.205 98.972 65.202C101.741 65.1982 104.484 65.7394 107.043 66.7944C109.603 67.8495 111.929 69.3978 113.888 71.3509C115.848 73.3039 117.402 75.6233 118.463 78.1765C119.523 80.7296 120.069 83.4664 120.069 86.2303V86.2303Z" stroke="#3C3F40" stroke-width="2" stroke-linecap="round" stroke-linejoin="round"/>
<path d="M132 62.5245V109.93H114.715C118.634 107.337 121.849 103.815 124.073 99.6796C126.297 95.5442 127.461 90.9236 127.461 86.23C127.461 81.5364 126.297 76.9158 124.073 72.7803C121.849 68.6449 118.634 65.1233 114.715 62.5295L132 62.5245Z" stroke="#3C3F40" stroke-width="2" stroke-linecap="round" stroke-linejoin="round"/>
<path d="M47.4166 47.4597H32.75C30.1266 47.4597 28 49.5823 28 52.2007V120.259C28 122.877 30.1266 125 32.75 125H47.4166C50.0399 125 52.1666 122.877 52.1666 120.259V52.2007C52.1666 49.5823 50.0399 47.4597 47.4166 47.4597Z" stroke="#3C3F40" stroke-width="2" stroke-linecap="round" stroke-linejoin="round"/>
<path d="M46.0379 42.4565H34.1279V47.4598H46.0379V42.4565Z" stroke="#3C3F40" stroke-width="2" stroke-linecap="round" stroke-linejoin="round"/>
<path d="M68.0658 62.5246C68.0688 63.6306 67.7431 64.7126 67.1299 65.6338C66.5168 66.555 65.6437 67.274 64.6211 67.6999C63.5985 68.1258 62.4723 68.2395 61.385 68.0266C60.2976 67.8137 59.298 67.2837 58.5125 66.5037C57.7269 65.7236 57.1908 64.7287 56.9718 63.6445C56.7528 62.5603 56.8609 61.4357 57.2823 60.4129C57.7038 59.39 58.4196 58.5149 59.3394 57.8981C60.2592 57.2814 61.3415 56.9507 62.4496 56.9479C63.1855 56.9452 63.9146 57.0873 64.5954 57.3662C65.2761 57.6452 65.8951 58.0554 66.4168 58.5734C66.9385 59.0914 67.3527 59.707 67.6356 60.3851C67.9186 61.0631 68.0648 61.7901 68.0658 62.5246V62.5246Z" stroke="#3C3F40" stroke-width="2" stroke-linecap="round" stroke-linejoin="round"/>
<path d="M114.714 62.5245C109.424 59.0235 103.114 57.3859 96.7851 57.8715C90.4564 58.3572 84.4715 60.9382 79.7798 65.2051C75.088 69.4721 71.9582 75.1806 70.8868 81.425C69.8155 87.6694 70.864 94.092 73.8659 99.674C76.8678 105.256 81.6514 109.678 87.4575 112.237C93.2636 114.797 99.7599 115.348 105.916 113.804C112.071 112.259 117.534 108.707 121.437 103.711C125.34 98.7146 127.46 92.5608 127.46 86.2255C127.473 81.5294 126.315 76.9039 124.09 72.7662C121.864 68.6285 118.642 65.1088 114.714 62.5245V62.5245ZM98.971 107.259C94.805 107.253 90.7342 106.015 87.2731 103.701C83.8119 101.387 81.1158 98.1006 79.5254 94.2575C77.9351 90.4143 77.5219 86.1869 78.3381 82.1094C79.1543 78.032 81.1632 74.2875 84.111 71.3493C87.0588 68.4112 90.8131 66.4112 94.8994 65.6021C98.9858 64.7931 103.221 65.2113 107.069 66.8039C110.917 68.3966 114.206 71.0921 116.52 74.5499C118.833 78.0076 120.068 82.0724 120.068 86.2305C120.069 88.9946 119.524 91.7318 118.463 94.2853C117.403 96.8388 115.848 99.1585 113.889 101.112C111.929 103.065 109.603 104.613 107.043 105.668C104.483 106.723 101.74 107.263 98.971 107.259V107.259Z" stroke="#3C3F40" stroke-width="2" stroke-linecap="round" stroke-linejoin="round"/>
<path d="M120.069 86.2303C120.072 90.3921 118.838 94.4611 116.524 97.923C114.21 101.385 110.919 104.084 107.068 105.679C103.217 107.275 98.9782 107.694 94.8881 106.885C90.7981 106.076 87.0403 104.074 84.0899 101.134C81.1395 98.1929 79.129 94.4449 78.3127 90.3637C77.4965 86.2825 77.911 82.0514 79.5039 78.2054C81.0969 74.3593 83.7967 71.0711 87.262 68.7565C90.7273 66.442 94.8023 65.205 98.972 65.202C101.741 65.1982 104.484 65.7394 107.043 66.7944C109.603 67.8495 111.929 69.3978 113.888 71.3509C115.848 73.3039 117.402 75.6233 118.463 78.1765C119.523 80.7296 120.069 83.4664 120.069 86.2303V86.2303Z" stroke="#3C3F40" stroke-width="2" stroke-linecap="round" stroke-linejoin="round"/>
<path d="M120.069 86.2303C120.072 90.3921 118.838 94.4611 116.524 97.923C114.21 101.385 110.919 104.084 107.068 105.679C103.217 107.275 98.9782 107.694 94.8881 106.885C90.7981 106.076 87.0403 104.074 84.0899 101.134C81.1395 98.1929 79.129 94.4449 78.3127 90.3637C77.4965 86.2825 77.911 82.0514 79.5039 78.2054C81.0969 74.3593 83.7967 71.0711 87.262 68.7565C90.7273 66.442 94.8023 65.205 98.972 65.202C101.741 65.1982 104.484 65.7394 107.043 66.7944C109.603 67.8495 111.929 69.3978 113.888 71.3509C115.848 73.3039 117.402 75.6233 118.463 78.1765C119.523 80.7296 120.069 83.4664 120.069 86.2303V86.2303Z" stroke="#3C3F40" stroke-width="2" stroke-linecap="round" stroke-linejoin="round"/>
<path d="M86.3325 86.2304C86.3324 84.572 86.6596 82.9298 87.2954 81.3976C87.9311 79.8654 88.8631 78.4732 90.038 77.3005C91.2129 76.1278 92.6077 75.1976 94.1428 74.5631C95.6779 73.9285 97.3233 73.6019 98.9848 73.6021" stroke="#3C3F40" stroke-width="2" stroke-linecap="round" stroke-linejoin="round"/>
<path d="M119.05 52.1998H78.9199L83.6709 39.7001C84.1956 38.3181 85.1294 37.1282 86.348 36.2887C87.5666 35.4491 89.0124 34.9996 90.4931 35H107.479C108.959 34.9996 110.405 35.4489 111.624 36.2883C112.842 37.1276 113.776 38.3173 114.301 39.6991L119.05 52.1998Z" stroke="#3C3F40" stroke-width="2" stroke-linecap="round" stroke-linejoin="round"/>
<path d="M91.2227 40.791H106.747" stroke="#3C3F40" stroke-width="2" stroke-linecap="round" stroke-linejoin="round"/>
</svg>
