<svg width="160" height="160" viewBox="0 0 160 160" fill="none" xmlns="http://www.w3.org/2000/svg">
<path d="M97.3059 77.7322C104.106 80.9119 109.858 85.9652 113.888 92.2989C117.918 98.6327 120.057 105.984 120.056 113.491" stroke="#BF9D8A" stroke-width="2" stroke-linecap="round" stroke-linejoin="round"/>
<path d="M41.1333 113.49C41.1319 105.953 43.2886 98.5733 47.3485 92.2234C51.4083 85.8734 57.2015 80.8188 64.0431 77.657" stroke="#BF9D8A" stroke-width="2" stroke-linecap="round" stroke-linejoin="round"/>
<path d="M32.5435 46.5083V59.7227" stroke="#BF9D8A" stroke-width="2" stroke-linecap="round" stroke-linejoin="round"/>
<path d="M44.0878 50.6202H21" stroke="#BF9D8A" stroke-width="2" stroke-linecap="round" stroke-linejoin="round"/>
<path d="M45.855 113.49H36.4136" stroke="#BF9D8A" stroke-width="2" stroke-linecap="round" stroke-linejoin="round"/>
<path d="M124.778 113.49H115.335" stroke="#BF9D8A" stroke-width="2" stroke-linecap="round" stroke-linejoin="round"/>
<path d="M52.958 67.0282H36.0081" stroke="#BF9D8A" stroke-width="2" stroke-linecap="round" stroke-linejoin="round"/>
<path d="M32.1275 59.7238H32.9607C33.7689 59.7238 34.5441 60.0448 35.1156 60.6163C35.687 61.1878 36.0081 61.9629 36.0081 62.7711V71.2875C36.0081 72.096 35.6869 72.8714 35.1152 73.4431C34.5435 74.0148 33.7681 74.336 32.9596 74.336H32.1286C31.3201 74.336 30.5447 74.0148 29.973 73.4431C29.4013 72.8714 29.0801 72.096 29.0801 71.2875V62.7711C29.0801 61.9629 29.4011 61.1878 29.9726 60.6163C30.5441 60.0448 31.3192 59.7238 32.1275 59.7238V59.7238Z" stroke="#BF9D8A" stroke-width="2" stroke-linecap="round" stroke-linejoin="round"/>
<path d="M127.457 46.5083V59.7227" stroke="#BF9D8A" stroke-width="2" stroke-linecap="round" stroke-linejoin="round"/>
<path d="M115.912 50.6202H139" stroke="#BF9D8A" stroke-width="2" stroke-linecap="round" stroke-linejoin="round"/>
<path d="M107.042 67.0282H123.992" stroke="#BF9D8A" stroke-width="2" stroke-linecap="round" stroke-linejoin="round"/>
<path d="M127.039 59.7238H127.873C128.681 59.7238 129.456 60.0448 130.027 60.6163C130.599 61.1878 130.92 61.9629 130.92 62.7711V71.2875C130.92 72.096 130.599 72.8714 130.027 73.4431C129.455 74.0148 128.68 74.336 127.871 74.336H127.039C126.639 74.336 126.243 74.2571 125.873 74.1039C125.503 73.9507 125.167 73.7261 124.884 73.443C124.601 73.1599 124.377 72.8239 124.224 72.454C124.071 72.0842 123.992 71.6878 123.992 71.2875V62.7711C123.992 61.9629 124.313 61.1878 124.885 60.6163C125.456 60.0448 126.231 59.7238 127.039 59.7238V59.7238Z" stroke="#BF9D8A" stroke-width="2" stroke-linecap="round" stroke-linejoin="round"/>
<path d="M101.727 63.0779H101.173C101.173 62.273 100.853 61.501 100.284 60.9319C99.7149 60.3627 98.943 60.043 98.1381 60.043H61.8597C61.0548 60.043 60.2829 60.3627 59.7137 60.9319C59.1446 61.501 58.8248 62.273 58.8248 63.0779H59.488C58.3247 63.0783 57.1937 63.4604 56.2685 64.1656C55.3433 64.8707 54.675 65.8599 54.3661 66.9814C54.0572 68.1029 54.1248 69.2948 54.5585 70.3742C54.9922 71.4536 55.7681 72.3609 56.7672 72.9569L68.9045 80.1956C69.7272 80.6867 70.6673 80.946 71.6254 80.9461H89.7249C90.6906 80.9463 91.638 80.6828 92.4651 80.1843L104.469 72.9603C105.254 72.4876 105.903 71.82 106.354 71.0222C106.805 70.2245 107.042 69.3237 107.042 68.4074V68.3893C107.041 66.9803 106.481 65.6293 105.484 64.6333C104.488 63.6374 103.136 63.0779 101.727 63.0779Z" stroke="#BF9D8A" stroke-width="2" stroke-linecap="round" stroke-linejoin="round"/>
<path d="M83.8037 80.9442H77.5752V90.2281H83.8037V80.9442Z" stroke="#BF9D8A" stroke-width="2" stroke-linecap="round" stroke-linejoin="round"/>
<path d="M98.155 90.2306H63.0364V113.492H98.155V90.2306Z" stroke="#BF9D8A" stroke-width="2" stroke-linecap="round" stroke-linejoin="round"/>
<path d="M80.6747 108.541C84.3651 108.541 87.3567 105.549 87.3567 101.859C87.3567 98.1683 84.3651 95.1766 80.6747 95.1766C76.9843 95.1766 73.9927 98.1683 73.9927 101.859C73.9927 105.549 76.9843 108.541 80.6747 108.541Z" stroke="#BF9D8A" stroke-width="2" stroke-linecap="round" stroke-linejoin="round"/>
<path d="M68.9204 94.3187H67.1292V96.11H68.9204V94.3187Z" stroke="#BF9D8A" stroke-width="2" stroke-linecap="round" stroke-linejoin="round"/>
<path d="M63.0364 67.0282H97.3069" stroke="#BF9D8A" stroke-width="2" stroke-linecap="round" stroke-linejoin="round"/>
</svg>
