<svg width="160" height="160" viewBox="0 0 160 160" fill="none" xmlns="http://www.w3.org/2000/svg">
<g clip-path="url(#clip0_5_926)">
<path d="M80 82.3765V130.63" stroke="#BF9D8A" stroke-width="2" stroke-linecap="round" stroke-linejoin="round"/>
<path d="M52.7749 130.63V123.919H107.225V130.63" stroke="#BF9D8A" stroke-width="2" stroke-linecap="round" stroke-linejoin="round"/>
<path d="M80.072 94.6155H87.843" stroke="#BF9D8A" stroke-width="2" stroke-linecap="round" stroke-linejoin="round"/>
<path d="M98.204 90.8905H87.843V98.3415H98.204V90.8905Z" stroke="#BF9D8A" stroke-width="2" stroke-linecap="round" stroke-linejoin="round"/>
<path d="M96.7751 29.3695L92.7281 43.0005L87.6891 44.4855V45.3595C85.4559 43.7316 82.7637 42.8545 80.0001 42.8545C77.2366 42.8545 74.5443 43.7316 72.3111 45.3595V44.4855L67.2751 43.0005L63.2241 29.3695H96.7751Z" stroke="#BF9D8A" stroke-width="2" stroke-linecap="round" stroke-linejoin="round"/>
<path d="M96.7751 82.3765H63.2241L67.2751 68.7465L72.3131 67.2605V66.4165C74.5466 68.0438 77.2387 68.9206 80.0021 68.9206C82.7655 68.9206 85.4577 68.0438 87.6911 66.4165V67.2605L92.7301 68.7465L96.7751 82.3765Z" stroke="#BF9D8A" stroke-width="2" stroke-linecap="round" stroke-linejoin="round"/>
<path d="M70.01 47.5145C68.0215 49.8425 66.9361 52.8078 66.952 55.8695C66.9405 58.9403 68.0248 61.9146 70.01 64.2575C70.6898 65.0633 71.4617 65.7865 72.31 66.4125V67.2565L67.275 68.7465L54.166 72.6495V39.1265L67.275 43.0005L72.314 44.4855V45.3595C71.4571 45.9764 70.6828 46.7006 70.01 47.5145V47.5145Z" stroke="#BF9D8A" stroke-width="2" stroke-linecap="round" stroke-linejoin="round"/>
<path d="M105.834 39.1265V72.6485L92.728 68.7485L87.689 67.2635V66.4195C88.5373 65.7935 89.3092 65.0703 89.989 64.2645C91.9761 61.9199 93.0609 58.9429 93.048 55.8695C93.0648 52.8064 91.9794 49.8395 89.99 47.5105C89.3184 46.6969 88.5455 45.9727 87.69 45.3555V44.4815L92.729 42.9965L105.834 39.1265Z" stroke="#BF9D8A" stroke-width="2" stroke-linecap="round" stroke-linejoin="round"/>
<path d="M93.0481 55.8695C93.0596 58.9403 91.9753 61.9146 89.9901 64.2575C89.3103 65.0633 88.5384 65.7866 87.6901 66.4125C85.4569 68.0404 82.7646 68.9175 80.0011 68.9175C77.2375 68.9175 74.5453 68.0404 72.3121 66.4125C71.464 65.7863 70.6921 65.063 70.0121 64.2575C68.0261 61.9149 66.9411 58.9406 66.9521 55.8695C66.9354 52.8065 68.0208 49.8396 70.0101 47.5105C70.6819 46.6971 71.4548 45.9729 72.3101 45.3555C74.5433 43.7276 77.2355 42.8505 79.9991 42.8505C82.7626 42.8505 85.4549 43.7276 87.6881 45.3555C88.5436 45.9727 89.3166 46.6969 89.9881 47.5105C91.9781 49.8393 93.0642 52.8062 93.0481 55.8695V55.8695Z" stroke="#BF9D8A" stroke-width="2" stroke-linecap="round" stroke-linejoin="round"/>
<path d="M72.1221 55.8775C72.1221 54.843 72.3258 53.8185 72.7217 52.8627C73.1177 51.9069 73.6979 51.0385 74.4295 50.3069C75.9069 48.8295 77.9107 47.9995 80.0001 47.9995" stroke="#BF9D8A" stroke-width="2" stroke-linecap="round" stroke-linejoin="round"/>
</g>
<defs>
<clipPath id="clip0_5_926">
<rect width="56.45" height="103.261" fill="white" transform="translate(51.7749 28.3695)"/>
</clipPath>
</defs>
</svg>
