<svg width="160" height="160" viewBox="0 0 160 160" fill="none" xmlns="http://www.w3.org/2000/svg">
<g clip-path="url(#clip0_5_895)">
<path d="M83.2996 57.7268H76.5171V116.729H83.2996V57.7268Z" stroke="#BF9D8A" stroke-width="2" stroke-linecap="round" stroke-linejoin="round"/>
<path d="M83.3029 116.741H76.5078V121.053H83.3029V116.741Z" stroke="#BF9D8A" stroke-width="2" stroke-linecap="round" stroke-linejoin="round"/>
<path d="M121.457 119.06L116.193 122.097L83.2998 58.984V57.7251H89.5042L121.457 119.06Z" stroke="#BF9D8A" stroke-width="2" stroke-linecap="round" stroke-linejoin="round"/>
<path d="M75.8734 57.726V59.3238L43.1675 122.097L37.9028 119.059L69.8534 57.726H75.8734Z" stroke="#BF9D8A" stroke-width="2" stroke-linecap="round" stroke-linejoin="round"/>
<path d="M41.6632 126.153L36.3994 123.121L38.5449 119.063L43.8087 122.095L41.6632 126.153Z" stroke="#BF9D8A" stroke-width="2" stroke-linecap="round" stroke-linejoin="round"/>
<path d="M118.338 126.153L123.601 123.121L121.456 119.063L116.193 122.095L118.338 126.153Z" stroke="#BF9D8A" stroke-width="2" stroke-linecap="round" stroke-linejoin="round"/>
<path d="M93.7029 49.6055H66.1079L69.4475 57.7215H90.3624L93.7029 49.6055Z" stroke="#BF9D8A" stroke-width="2" stroke-linecap="round" stroke-linejoin="round"/>
<path d="M90.5459 41.726H69.2632V49.6055H90.5459V41.726Z" stroke="#BF9D8A" stroke-width="2" stroke-linecap="round" stroke-linejoin="round"/>
<path d="M114.777 43.5756H103.487V47.7559H114.777V43.5756Z" stroke="#BF9D8A" stroke-width="2" stroke-linecap="round" stroke-linejoin="round"/>
<path d="M86.8488 33.8464H72.9609V41.726H86.8488V33.8464Z" stroke="#BF9D8A" stroke-width="2" stroke-linecap="round" stroke-linejoin="round"/>
<path d="M90.5459 45.6661H103.487" stroke="#BF9D8A" stroke-width="2" stroke-linecap="round" stroke-linejoin="round"/>
</g>
<defs>
<clipPath id="clip0_5_895">
<rect width="89" height="94.1038" fill="white" transform="translate(35.5 32.9481)"/>
</clipPath>
</defs>
</svg>
