<svg width="160" height="160" viewBox="0 0 160 160" fill="none" xmlns="http://www.w3.org/2000/svg">
<path d="M122.522 79.9999C122.532 86.9629 120.814 93.8195 117.522 99.9549L105.958 80.0279V79.9999L92.9771 57.5439H116.102C120.312 64.2762 122.537 72.0597 122.522 79.9999V79.9999Z" stroke="#BF9D8A" stroke-width="2" stroke-linecap="round" stroke-linejoin="round"/>
<path d="M116.077 57.4879L67.0239 57.5439L78.5829 37.5049C79.0549 37.4779 79.5279 37.4779 79.9999 37.4779C87.2181 37.4732 94.3185 39.3079 100.631 42.809C106.943 46.3101 112.259 51.362 116.077 57.4879V57.4879Z" stroke="#BF9D8A" stroke-width="2" stroke-linecap="round" stroke-linejoin="round"/>
<path d="M78.5271 37.506L67.0211 57.544L61.796 66.604L54.0701 80.004H54.0421V79.977L42.4771 59.99C45.9833 53.4074 51.1609 47.864 57.4891 43.9172C63.8174 39.9703 71.0732 37.7591 78.5271 37.506Z" stroke="#BF9D8A" stroke-width="2" stroke-linecap="round" stroke-linejoin="round"/>
<path d="M67.0207 102.456H43.8977C39.9557 96.1349 37.7488 88.8868 37.4994 81.4415C37.2499 73.9962 38.9667 66.6166 42.4767 60.0459L54.0417 79.9769V80.0049L67.0207 102.456Z" stroke="#BF9D8A" stroke-width="2" stroke-linecap="round" stroke-linejoin="round"/>
<path d="M92.9768 102.456L81.4178 122.494C80.9448 122.522 80.4728 122.522 79.9998 122.522C72.7821 122.526 65.6823 120.691 59.3706 117.19C53.0589 113.689 47.7434 108.637 43.9258 102.512L92.9768 102.456Z" stroke="#BF9D8A" stroke-width="2" stroke-linecap="round" stroke-linejoin="round"/>
<path d="M117.519 100.01C114.013 106.591 108.837 112.134 102.51 116.081C96.1836 120.027 88.9295 122.239 81.4771 122.494L92.9771 102.455L98.202 93.395L105.928 80L105.956 80.027L117.519 100.01Z" stroke="#BF9D8A" stroke-width="2" stroke-linecap="round" stroke-linejoin="round"/>
<path d="M80 131.123C108.234 131.123 131.123 108.234 131.123 80C131.123 51.7655 108.234 28.877 80 28.877C51.7655 28.877 28.877 51.7655 28.877 80C28.877 108.234 51.7655 131.123 80 131.123Z" stroke="#BF9D8A" stroke-width="2" stroke-linecap="round" stroke-linejoin="round"/>
<path d="M85.7398 80C85.74 81.1353 85.4035 82.2452 84.7729 83.1892C84.1423 84.1333 83.2459 84.8692 82.1971 85.3038C81.1482 85.7384 79.9941 85.8522 78.8806 85.6308C77.767 85.4095 76.7442 84.8628 75.9413 84.0601C75.1385 83.2574 74.5917 82.2347 74.3701 81.1212C74.1486 80.0077 74.2622 78.8535 74.6966 77.8046C75.131 76.7557 75.8667 75.8592 76.8107 75.2284C77.7546 74.5977 78.8645 74.261 79.9998 74.261C80.7535 74.2609 81.4999 74.4092 82.1963 74.6976C82.8927 74.9859 83.5255 75.4086 84.0585 75.9415C84.5915 76.4745 85.0143 77.1072 85.3028 77.8035C85.5913 78.4999 85.7398 79.2462 85.7398 80V80Z" stroke="#BF9D8A" stroke-width="2" stroke-linecap="round" stroke-linejoin="round"/>
<path d="M68.939 65.9189L60.79 79.9769L65.834 88.7319" stroke="#BF9D8A" stroke-width="2" stroke-linecap="round" stroke-linejoin="round"/>
</svg>
