<svg width="160" height="160" viewBox="0 0 160 160" fill="none" xmlns="http://www.w3.org/2000/svg">
<path d="M42.8364 69.73V104.213C42.8405 105.059 43.0831 105.887 43.5364 106.602H31.5654C30.8089 106.601 30.0837 106.3 29.5488 105.765C29.0139 105.23 28.7127 104.505 28.7114 103.748V74.361C28.718 72.0458 29.6406 69.8272 31.2777 68.19C32.9147 66.5528 35.1332 65.6299 37.4484 65.623H43.8564C43.1923 66.8906 42.8425 68.2991 42.8364 69.73Z" stroke="#3C3F40" stroke-width="2" stroke-linecap="round" stroke-linejoin="round"/>
<path d="M131.289 74.36V103.747C131.287 104.504 130.986 105.229 130.451 105.764C129.916 106.299 129.191 106.6 128.435 106.601H116.465C116.918 105.887 117.16 105.059 117.165 104.213V69.729C117.159 68.2984 116.809 66.8902 116.145 65.623H122.552C124.867 65.6299 127.085 66.5526 128.722 68.1896C130.359 69.8267 131.282 72.045 131.289 74.36V74.36Z" stroke="#3C3F40" stroke-width="2" stroke-linecap="round" stroke-linejoin="round"/>
<path d="M32.9404 100.199H38.5704" stroke="#3C3F40" stroke-width="2" stroke-linecap="round" stroke-linejoin="round"/>
<path d="M121.43 83.472H127.06" stroke="#3C3F40" stroke-width="2" stroke-linecap="round" stroke-linejoin="round"/>
<path d="M121.43 88.74H127.06" stroke="#3C3F40" stroke-width="2" stroke-linecap="round" stroke-linejoin="round"/>
<path d="M117.163 69.73V104.213C117.159 105.059 116.917 105.887 116.463 106.602C116.06 107.24 115.501 107.765 114.839 108.127C114.177 108.489 113.433 108.676 112.678 108.671H100.242L98.3484 96.871H61.6514C61.5934 97.221 60.6904 102.929 59.7584 108.671H47.3224C46.5676 108.676 45.8239 108.489 45.1615 108.128C44.499 107.766 43.9397 107.241 43.5364 106.603C43.0831 105.888 42.8405 105.06 42.8364 104.214V69.73C42.8425 68.2991 43.1923 66.8905 43.8564 65.623C44.6084 64.2294 45.7218 63.064 47.0797 62.2493C48.4376 61.4346 49.9899 61.0007 51.5734 60.993H108.426C110.01 61.0006 111.563 61.4345 112.921 62.2492C114.279 63.0639 115.392 64.2293 116.144 65.623C116.808 66.8908 117.157 68.2992 117.163 69.73V69.73Z" stroke="#3C3F40" stroke-width="2" stroke-linecap="round" stroke-linejoin="round"/>
<path d="M102.422 37.671H57.5764V60.987H102.422V37.671Z" stroke="#3C3F40" stroke-width="2" stroke-linecap="round" stroke-linejoin="round"/>
<path d="M62.5254 50.812V43.748H69.8994" stroke="#3C3F40" stroke-width="2" stroke-linecap="round" stroke-linejoin="round"/>
<path d="M105.194 89.243V108.671H100.243L98.3485 96.871H61.6515C61.5935 97.22 60.6905 102.929 59.7585 108.671H54.8115V89.243H105.194Z" stroke="#3C3F40" stroke-width="2" stroke-linecap="round" stroke-linejoin="round"/>
<path d="M102.426 122.329H57.5735L57.8075 120.814C57.8935 120.436 58.8265 114.524 59.7585 108.67C60.6905 102.932 61.5935 97.224 61.6505 96.87H98.3505L100.241 108.671L102.426 122.329Z" stroke="#3C3F40" stroke-width="2" stroke-linecap="round" stroke-linejoin="round"/>
<path d="M58.4524 116.878C58.8116 116.091 59.3307 115.388 59.9767 114.814C60.6227 114.239 61.3814 113.805 62.2044 113.54C67.0124 111.819 68.9414 117.5 71.5764 116.821C74.5984 116.044 72.9424 109.548 77.0974 107.946C81.1914 106.367 82.9314 111.833 85.8044 110.738C88.7764 109.605 87.2624 103.39 91.0804 101.953C93.2254 101.145 96.2514 101.023 99.7354 105.741" stroke="#3C3F40" stroke-width="2" stroke-linecap="round" stroke-linejoin="round"/>
</svg>
