<svg width="160" height="160" viewBox="0 0 160 160" fill="none" xmlns="http://www.w3.org/2000/svg">
<path d="M95.3611 118.781L93.9192 124.625C93.7577 125.29 93.3769 125.881 92.8384 126.303C92.2999 126.725 91.6351 126.953 90.951 126.951H69.0456C68.3615 126.953 67.6965 126.725 67.158 126.303C66.6195 125.881 66.2388 125.29 66.0774 124.625L64.6392 118.781C64.883 119.462 65.3317 120.051 65.9236 120.468C66.5155 120.884 67.2217 121.107 67.9454 121.106H92.0558C92.7793 121.107 93.4853 120.884 94.077 120.467C94.6688 120.051 95.1173 119.462 95.3611 118.781Z" stroke="#3C3F40" stroke-width="2" stroke-linecap="round" stroke-linejoin="round"/>
<path d="M99.8785 33.0492H60.1224C59.554 33.0487 59.0002 33.2295 58.5416 33.5653C58.083 33.9011 57.7433 34.3743 57.572 34.9163L52.6247 50.5289C52.4584 51.0545 52.4584 51.6187 52.6247 52.1443L57.572 67.7569C57.7428 68.2995 58.0822 68.7735 58.5409 69.1099C58.9995 69.4464 59.5536 69.6278 60.1224 69.6277H99.8794C100.447 69.6279 101 69.4474 101.458 69.1124C101.916 68.7774 102.256 68.3052 102.428 67.7643L107.375 52.1517C107.542 51.626 107.542 51.0619 107.375 50.5362L102.428 34.9236C102.258 34.3804 101.919 33.9057 101.46 33.5685C101.002 33.2314 100.448 33.0494 99.8785 33.0492V33.0492Z" stroke="#3C3F40" stroke-width="2" stroke-linecap="round" stroke-linejoin="round"/>
<path d="M62.6443 63.5076L58.7871 51.3399L62.6443 39.1685H97.3594L101.217 51.3399L97.3594 63.5076H62.6443Z" stroke="#3C3F40" stroke-width="2" stroke-linecap="round" stroke-linejoin="round"/>
<path d="M60.7302 45.2112H99.2695" stroke="#3C3F40" stroke-width="2" stroke-linecap="round" stroke-linejoin="round"/>
<path d="M59.2317 51.338H100.769" stroke="#3C3F40" stroke-width="2" stroke-linecap="round" stroke-linejoin="round"/>
<path d="M60.7302 57.4646H99.2695" stroke="#3C3F40" stroke-width="2" stroke-linecap="round" stroke-linejoin="round"/>
<path d="M92.0556 121.092H67.9442C67.114 121.092 66.3106 120.798 65.6771 120.261C65.0436 119.724 64.621 118.98 64.4847 118.161L57.7345 77.7025C57.6507 77.2 57.6774 76.6854 57.8127 76.1943C57.948 75.7032 58.1886 75.2474 58.5179 74.8587C58.8471 74.4701 59.2571 74.1578 59.7193 73.9436C60.1814 73.7294 60.6847 73.6184 61.1941 73.6184H98.8049C99.3142 73.6184 99.8175 73.7293 100.28 73.9435C100.742 74.1578 101.152 74.4701 101.481 74.8588C101.81 75.2475 102.051 75.7032 102.186 76.1943C102.321 76.6854 102.347 77.2001 102.264 77.7025L95.5152 118.161C95.3789 118.98 94.9563 119.724 94.3228 120.261C93.6893 120.798 92.8859 121.092 92.0556 121.092V121.092Z" stroke="#3C3F40" stroke-width="2" stroke-linecap="round" stroke-linejoin="round"/>
<path d="M85.5342 87.1063H100.722" stroke="#3C3F40" stroke-width="2" stroke-linecap="round" stroke-linejoin="round"/>
<path d="M59.2783 87.1063H75.2463" stroke="#3C3F40" stroke-width="2" stroke-linecap="round" stroke-linejoin="round"/>
<path d="M82.8589 82.7773H77.9217C76.4447 82.7773 75.2473 83.9747 75.2473 85.4517V98.3321C75.2473 99.8091 76.4447 101.006 77.9217 101.006H82.8589C84.3359 101.006 85.5333 99.8091 85.5333 98.3321V85.4517C85.5333 83.9747 84.3359 82.7773 82.8589 82.7773Z" stroke="#3C3F40" stroke-width="2" stroke-linecap="round" stroke-linejoin="round"/>
</svg>
