<svg width="120" height="50" viewBox="0 0 120 50" fill="none" xmlns="http://www.w3.org/2000/svg">
<path d="M31.1214 22.216C31.1214 22.852 30.9714 23.452 30.6714 24.016C30.3714 24.58 29.8914 25.042 29.2314 25.402C28.5714 25.75 27.7254 25.924 26.6934 25.924H24.4254V31H22.3734V18.49H26.6934C27.6534 18.49 28.4634 18.658 29.1234 18.994C29.7954 19.318 30.2934 19.762 30.6174 20.326C30.9534 20.89 31.1214 21.52 31.1214 22.216ZM26.6934 24.25C27.4734 24.25 28.0554 24.076 28.4394 23.728C28.8234 23.368 29.0154 22.864 29.0154 22.216C29.0154 20.848 28.2414 20.164 26.6934 20.164H24.4254V24.25H26.6934ZM35.3805 29.344H39.6105V31H33.3285V18.49H35.3805V29.344Z" fill="#3C3F40"/>
<g opacity="0.3">
<path d="M80 17H52V33H80V17Z" fill="white"/>
<path d="M79.5 17.5H52.5V32.5H79.5V17.5Z" stroke="#3C3F40"/>
</g>
<path d="M80 25H52V33H80V25Z" fill="#D30226"/>
<path d="M92 22.913L96 27.087L100 22.913" stroke="#3C3F40" stroke-width="2" stroke-linecap="round" stroke-linejoin="round"/>
<rect x="0.5" y="0.5" width="119" height="49" rx="7.5" stroke="#BF9D8A"/>
</svg>
