<svg id="Group_96" data-name="Group 96" xmlns="http://www.w3.org/2000/svg" xmlns:xlink="http://www.w3.org/1999/xlink" width="144" height="51.281" viewBox="0 0 144 51.281">
  <defs>
    <clipPath id="clip-path">
      <rect id="Rectangle_41" data-name="Rectangle 41" width="144" height="51.281" fill="#3c3f40"/>
    </clipPath>
  </defs>
  <g id="Group_1" data-name="Group 1" clip-path="url(#clip-path)">
    <path id="Path_2" data-name="Path 2" d="M25.64,0a25.64,25.64,0,1,0,25.64,25.64A25.669,25.669,0,0,0,25.64,0m0,48.991a23.35,23.35,0,1,1,23.35-23.35,23.377,23.377,0,0,1-23.35,23.35" fill="#3c3f40"/>
    <path id="Path_3" data-name="Path 3" d="M36.353,15.332a21.021,21.021,0,1,0,21.021,21.02,21.044,21.044,0,0,0-21.021-21.02M55.006,34.689l-9.494,4.888L46.468,20.6a18.741,18.741,0,0,1,8.538,14.089M29.1,39.963l.38-7.971,7.26-3.712,6.82,4.427-.407,8.083-7.132,3.672Zm15.132-20.6L43.7,30.062,27.761,19.717a18.67,18.67,0,0,1,16.475-.35m-18.647,1.67,8.939,5.8L17.645,35.474a18.722,18.722,0,0,1,7.944-14.436M17.7,38.017l9.434-4.824-.9,18.908A18.74,18.74,0,0,1,17.7,38.017M28.467,53.336l.512-10.725L44.945,52.988a18.668,18.668,0,0,1-16.478.348m18.649-1.668L38.239,45.9l16.823-8.663a18.724,18.724,0,0,1-7.945,14.432" transform="translate(-10.713 -10.712)" fill="#3c3f40"/>
    <path id="Path_4" data-name="Path 4" d="M206.72,61.514a7.308,7.308,0,0,1-2.52-1.306l.913-1.949a7.761,7.761,0,0,0,2.25,1.192,8.177,8.177,0,0,0,2.561.384A4.391,4.391,0,0,0,212.3,59.3a1.7,1.7,0,0,0,.84-1.514,1.4,1.4,0,0,0-.777-1.275,9.768,9.768,0,0,0-2.561-.84,10.626,10.626,0,0,1-4.043-1.555,3.265,3.265,0,0,1-1.265-2.779,3.972,3.972,0,0,1,.705-2.322,4.7,4.7,0,0,1,2-1.6,7.271,7.271,0,0,1,3-.581,9.291,9.291,0,0,1,2.955.466,6.18,6.18,0,0,1,2.291,1.3l-.892,1.949a6.81,6.81,0,0,0-4.354-1.576,3.83,3.83,0,0,0-2.26.591,1.87,1.87,0,0,0-.83,1.607,1.468,1.468,0,0,0,.736,1.327,8.722,8.722,0,0,0,2.52.85,17.985,17.985,0,0,1,3.006.944,4.477,4.477,0,0,1,1.783,1.306,3.159,3.159,0,0,1,.622,2,3.866,3.866,0,0,1-.705,2.312,4.5,4.5,0,0,1-2.032,1.524,8.3,8.3,0,0,1-3.131.539,10.779,10.779,0,0,1-3.183-.456" transform="translate(-142.673 -32.722)" fill="#3c3f40"/>
    <path id="Path_5" data-name="Path 5" d="M258.909,61.072V71.544h-2.55V69.865a3.367,3.367,0,0,1-1.369,1.358,4.173,4.173,0,0,1-2.032.487,4.464,4.464,0,0,1-2.426-.664,4.38,4.38,0,0,1-1.638-1.887,6.555,6.555,0,0,1-.581-2.84,6.666,6.666,0,0,1,.591-2.872,4.63,4.63,0,0,1,1.648-1.949,4.282,4.282,0,0,1,2.405-.695,4.173,4.173,0,0,1,2.032.487,3.369,3.369,0,0,1,1.369,1.358V61.072Zm-3.255,7.714a3.958,3.958,0,0,0,.705-2.509,4.033,4.033,0,0,0-.705-2.551,2.416,2.416,0,0,0-2.012-.892,2.387,2.387,0,0,0-2,.923,4.088,4.088,0,0,0-.716,2.561,3.825,3.825,0,0,0,.716,2.488,2.468,2.468,0,0,0,2.021.871,2.392,2.392,0,0,0,1.991-.892" transform="translate(-173.495 -42.483)" fill="#3c3f40"/>
    <path id="Path_6" data-name="Path 6" d="M302.2,65.116v6.428h-2.592v-6.3a2.808,2.808,0,0,0-.477-1.814,1.811,1.811,0,0,0-1.472-.57,2.521,2.521,0,0,0-1.908.757,2.768,2.768,0,0,0-.726,2v5.93h-2.571V64.038a23.752,23.752,0,0,0-.166-2.965h2.426l.187,1.721a3.79,3.79,0,0,1,1.462-1.472,4.183,4.183,0,0,1,2.084-.518q3.753,0,3.753,4.313" transform="translate(-204.218 -42.483)" fill="#3c3f40"/>
    <path id="Path_7" data-name="Path 7" d="M334.6,55.713V60.4q0,1.846,1.721,1.846a3.658,3.658,0,0,0,1.037-.166v2.053a4.872,4.872,0,0,1-1.659.249,3.613,3.613,0,0,1-2.737-1,3.973,3.973,0,0,1-.954-2.861V55.713H330V53.764h2.011V51.213l2.592-.87v3.421h2.779v1.949Z" transform="translate(-230.568 -35.174)" fill="#3c3f40"/>
    <path id="Path_8" data-name="Path 8" d="M369.086,61.072V71.544h-2.551V69.865a3.364,3.364,0,0,1-1.368,1.358,4.174,4.174,0,0,1-2.032.487,4.463,4.463,0,0,1-2.426-.664,4.38,4.38,0,0,1-1.638-1.887,6.554,6.554,0,0,1-.581-2.84,6.667,6.667,0,0,1,.591-2.872,4.631,4.631,0,0,1,1.648-1.949,4.283,4.283,0,0,1,2.406-.695,4.174,4.174,0,0,1,2.032.487,3.366,3.366,0,0,1,1.368,1.358V61.072Zm-3.256,7.714a3.954,3.954,0,0,0,.705-2.509,4.03,4.03,0,0,0-.705-2.551,2.414,2.414,0,0,0-2.011-.892,2.388,2.388,0,0,0-2,.923,4.088,4.088,0,0,0-.716,2.561,3.825,3.825,0,0,0,.716,2.488,2.469,2.469,0,0,0,2.022.871,2.391,2.391,0,0,0,1.99-.892" transform="translate(-250.474 -42.483)" fill="#3c3f40"/>
    <path id="Path_9" data-name="Path 9" d="M412.376,65.116v6.428h-2.592v-6.3a2.806,2.806,0,0,0-.477-1.814,1.81,1.81,0,0,0-1.472-.57,2.521,2.521,0,0,0-1.908.757,2.768,2.768,0,0,0-.726,2v5.93H402.63V64.038a23.693,23.693,0,0,0-.166-2.965h2.426l.187,1.721a3.8,3.8,0,0,1,1.462-1.472,4.182,4.182,0,0,1,2.084-.518q3.753,0,3.753,4.313" transform="translate(-281.199 -42.483)" fill="#3c3f40"/>
    <path id="Path_10" data-name="Path 10" d="M453.182,61.072V71.544h-2.551V69.865a3.364,3.364,0,0,1-1.369,1.358,4.173,4.173,0,0,1-2.032.487,4.463,4.463,0,0,1-2.426-.664,4.38,4.38,0,0,1-1.638-1.887,6.554,6.554,0,0,1-.58-2.84,6.661,6.661,0,0,1,.591-2.872,4.628,4.628,0,0,1,1.648-1.949,4.282,4.282,0,0,1,2.405-.695,4.173,4.173,0,0,1,2.032.487,3.366,3.366,0,0,1,1.369,1.358V61.072Zm-3.256,7.714a3.956,3.956,0,0,0,.705-2.509,4.032,4.032,0,0,0-.705-2.551,2.415,2.415,0,0,0-2.011-.892,2.388,2.388,0,0,0-2,.923,4.088,4.088,0,0,0-.715,2.561,3.825,3.825,0,0,0,.715,2.488,2.469,2.469,0,0,0,2.022.871,2.391,2.391,0,0,0,1.99-.892" transform="translate(-309.232 -42.483)" fill="#3c3f40"/>
    <path id="Path_11" data-name="Path 11" d="M209.308,107.613h1.825a1.636,1.636,0,0,1,1.1.341,1.312,1.312,0,0,1,0,1.88,1.629,1.629,0,0,1-1.1.344h-1.3v2.012h-.527Zm1.78,2.128a1.155,1.155,0,0,0,.765-.218.781.781,0,0,0,.257-.63.772.772,0,0,0-.257-.627,1.169,1.169,0,0,0-.765-.215h-1.253v1.69Z" transform="translate(-146.242 -75.188)" fill="#3c3f40"/>
    <path id="Path_12" data-name="Path 12" d="M234.994,107.613h.527v4.576h-.527v-2.1h-2.745v2.1h-.52v-4.576h.52v2.031h2.745Z" transform="translate(-161.907 -75.189)" fill="#3c3f40"/>
    <path id="Path_13" data-name="Path 13" d="M257.023,111.839a1.858,1.858,0,0,1-.723-.813,3.2,3.2,0,0,1,0-2.491,1.847,1.847,0,0,1,.72-.81,2.329,2.329,0,0,1,2.224,0,1.845,1.845,0,0,1,.72.81,3.193,3.193,0,0,1,0,2.487,1.886,1.886,0,0,1-.723.814,2.289,2.289,0,0,1-2.211,0m2.237-.662a2.624,2.624,0,0,0,0-2.8,1.562,1.562,0,0,0-2.272,0,2.133,2.133,0,0,0-.4,1.392,2.157,2.157,0,0,0,.4,1.4,1.547,1.547,0,0,0,2.269,0" transform="translate(-178.898 -75.07)" fill="#3c3f40"/>
    <path id="Path_14" data-name="Path 14" d="M280.635,112.19v-4.126h-1.594v-.45h3.722v.45h-1.594v4.126Z" transform="translate(-194.964 -75.189)" fill="#3c3f40"/>
    <path id="Path_15" data-name="Path 15" d="M301.543,111.839a1.858,1.858,0,0,1-.723-.813,3.2,3.2,0,0,1,0-2.491,1.846,1.846,0,0,1,.72-.81,2.329,2.329,0,0,1,2.224,0,1.845,1.845,0,0,1,.72.81,3.193,3.193,0,0,1,0,2.487,1.886,1.886,0,0,1-.723.814,2.29,2.29,0,0,1-2.211,0m2.237-.662a2.624,2.624,0,0,0,0-2.8,1.562,1.562,0,0,0-2.272,0,2.133,2.133,0,0,0-.4,1.392,2.157,2.157,0,0,0,.4,1.4,1.547,1.547,0,0,0,2.269,0" transform="translate(-210.003 -75.07)" fill="#3c3f40"/>
    <path id="Path_16" data-name="Path 16" d="M329.353,109.687v2.121a2.674,2.674,0,0,1-.707.228,4.544,4.544,0,0,1-.887.087,2.355,2.355,0,0,1-1.176-.28,1.835,1.835,0,0,1-.755-.807,2.817,2.817,0,0,1-.26-1.259,2.784,2.784,0,0,1,.26-1.25,1.857,1.857,0,0,1,.746-.8,2.257,2.257,0,0,1,1.147-.279,2.6,2.6,0,0,1,.884.144,1.843,1.843,0,0,1,.691.434l-.206.4a2.37,2.37,0,0,0-.652-.408,1.944,1.944,0,0,0-.717-.125,1.481,1.481,0,0,0-1.192.485,2.573,2.573,0,0,0,.009,2.815,1.552,1.552,0,0,0,1.234.485,3.379,3.379,0,0,0,1.1-.18V110.1h-1.138v-.418Z" transform="translate(-227.471 -75.07)" fill="#3c3f40"/>
    <path id="Path_17" data-name="Path 17" d="M353.84,112.19h-.559l-.566-1.523a.655.655,0,0,0-.286-.379,1.129,1.129,0,0,0-.517-.1h-1.144v2h-.52v-4.577h1.819a1.737,1.737,0,0,1,1.135.328,1.159,1.159,0,0,1,.4.945,1.2,1.2,0,0,1-.235.755,1.267,1.267,0,0,1-.678.434.62.62,0,0,1,.341.171,1.068,1.068,0,0,1,.238.4Zm-1.819-2.436q1.054,0,1.054-.861a.768.768,0,0,0-.257-.633,1.253,1.253,0,0,0-.8-.209h-1.253v1.7Z" transform="translate(-244.715 -75.188)" fill="#3c3f40"/>
    <path id="Path_18" data-name="Path 18" d="M375.887,112.189l-.5-1.176H373l-.508,1.176h-.546l2.012-4.576h.463l2.012,4.576Zm-2.706-1.613H375.2l-1.009-2.352Z" transform="translate(-259.873 -75.188)" fill="#3c3f40"/>
    <path id="Path_19" data-name="Path 19" d="M397.625,107.613h1.825a1.635,1.635,0,0,1,1.1.341,1.312,1.312,0,0,1,0,1.88,1.629,1.629,0,0,1-1.1.344h-1.3v2.012h-.527Zm1.78,2.128a1.154,1.154,0,0,0,.765-.218.78.78,0,0,0,.257-.63.771.771,0,0,0-.257-.627,1.167,1.167,0,0,0-.765-.215h-1.253v1.69Z" transform="translate(-277.818 -75.188)" fill="#3c3f40"/>
    <path id="Path_20" data-name="Path 20" d="M423.31,107.613h.527v4.576h-.527v-2.1h-2.744v2.1h-.521v-4.576h.521v2.031h2.744Z" transform="translate(-293.482 -75.189)" fill="#3c3f40"/>
    <path id="Path_21" data-name="Path 21" d="M444.917,112.19v-4.576h2.893v.437h-2.372v1.594h2.243v.443h-2.243v1.665h2.372v.437Z" transform="translate(-310.86 -75.189)" fill="#3c3f40"/>
    <path id="Path_22" data-name="Path 22" d="M469.586,112.19h-.559l-.566-1.523a.655.655,0,0,0-.286-.379,1.129,1.129,0,0,0-.517-.1h-1.144v2h-.521v-4.577h1.819a1.735,1.735,0,0,1,1.134.328,1.159,1.159,0,0,1,.4.945,1.2,1.2,0,0,1-.235.755,1.267,1.267,0,0,1-.678.434.62.62,0,0,1,.341.171,1.068,1.068,0,0,1,.238.4Zm-1.819-2.436q1.054,0,1.054-.861a.768.768,0,0,0-.257-.633,1.253,1.253,0,0,0-.8-.209h-1.253v1.7Z" transform="translate(-325.586 -75.188)" fill="#3c3f40"/>
  </g>
</svg>
